<?xml version="1.0" encoding="UTF-8" standalone="no"?>
<!-- Created with Inkscape (http://www.inkscape.org/) -->

<svg
   version="1.1"
   id="svg824"
   width="1600"
   height="1600"
   viewBox="0 0 1600 1600"
   sodipodi:docname="crown.svg"
   inkscape:version="1.1.2 (b8e25be833, 2022-02-05)"
   xmlns:inkscape="http://www.inkscape.org/namespaces/inkscape"
   xmlns:sodipodi="http://sodipodi.sourceforge.net/DTD/sodipodi-0.dtd"
   xmlns="http://www.w3.org/2000/svg"
   xmlns:svg="http://www.w3.org/2000/svg">
  <defs
     id="defs828" />
  <sodipodi:namedview
     id="namedview826"
     pagecolor="#ffffff"
     bordercolor="#666666"
     borderopacity="1.0"
     inkscape:pageshadow="2"
     inkscape:pageopacity="0.0"
     inkscape:pagecheckerboard="0"
     showgrid="false"
     inkscape:zoom="0.31996582"
     inkscape:cx="1261.0722"
     inkscape:cy="978.22949"
     inkscape:window-width="1920"
     inkscape:window-height="1017"
     inkscape:window-x="-1928"
     inkscape:window-y="-8"
     inkscape:window-maximized="1"
     inkscape:current-layer="g830" />
  <g
     inkscape:groupmode="layer"
     inkscape:label="Image"
     id="g830">
    <path
       style="fill:#d2c601;stroke:none;fill-opacity:1"
       d="m 748.46961,321.27072 c -50.528,121.361 -118.435,238.375 -177.247,356 -22.537,45.075 -55.81,93.602 -69.753,142 -23.24,-10.646 -45.294,-36.54 -65,-52.919 -46.688,-38.804 -93.338,-77.658 -140,-116.495 -20.827,-17.334 -42.97,-42.186 -67,-54.586 26.376,-42.354 38.337,-85.331 15.68,-133 -37.777,-79.478 -151.631399,-87.793 -204.254799,-20 -33.8515901,43.61 -33.6049901,108.208 1.6589,151 18.5416,22.5 44.2617,37.408 72.915899,42.576 8.092,1.459 41.815,-2.906 45.836,2.746 6.789,9.544 7.257,31.168 9.564,42.678 6.557,32.726 13.836,65.316 20.603,98 23.68,114.37 49.761,228.33998 71.997,342.99998 H 1343.4696 c 2.87,-35.17 14.84,-71.42 22,-106 16.5,-79.71098 33.99,-159.22998 50.2,-238.99998 6.65,-32.709 13.65,-65.353 20.59,-98 2.34,-10.987 2.51,-31.631 9.2,-40.678 4.27,-5.774 39.49,-1.483 48.01,-3.127 29.65,-5.719 55.49,-22.284 73.76,-46.195 35.57,-46.543 29.77,-114.955 -9.85,-156.996 -57.67,-61.202 -163.16,-41.228 -197.6,33.996 -20.27,44.276 -9.68,90.892 17.69,129 -22.84,10.462 -44.67,35.789 -64,51.92 -46.62,38.895 -93.34,77.657 -140,116.494 -21.19,17.637 -43.54,42.962 -68,55.586 -13.81,-47.956 -47.51,-96.231 -69.75,-141 -58.68097,-118.115 -126.57197,-235.278 -177.24999,-357 116.88302,-50.366 64.29402,-228.921002 -55,-228.921002 -118.841,0 -173.085,179.497002 -55,228.921002 m -490,922.99998 c 0,59.95 -14.629,135.52 47,170.57 24.841,14.13 54.579,10.43 82,10.43 h 155 537.99999 139 c 29.71,0 58.14,2.73 85,-12.31 58.92,-32.99 44,-112.41 44,-168.69 z"
       id="path1058" />
  </g>
</svg>
