<?xml version="1.0" encoding="UTF-8" standalone="no"?>
<!-- Created with Inkscape (http://www.inkscape.org/) -->

<svg
   version="1.1"
   id="svg5637"
   width="247.05756"
   height="247.05756"
   viewBox="0 0 247.05756 247.05756"
   sodipodi:docname="jester.svg"
   inkscape:version="1.1.2 (b8e25be833, 2022-02-05)"
   xmlns:inkscape="http://www.inkscape.org/namespaces/inkscape"
   xmlns:sodipodi="http://sodipodi.sourceforge.net/DTD/sodipodi-0.dtd"
   xmlns="http://www.w3.org/2000/svg"
   xmlns:svg="http://www.w3.org/2000/svg">
  <defs
     id="defs5641" />
  <sodipodi:namedview
     id="namedview5639"
     pagecolor="#ffffff"
     bordercolor="#666666"
     borderopacity="1.0"
     inkscape:pageshadow="2"
     inkscape:pageopacity="0.0"
     inkscape:pagecheckerboard="0"
     showgrid="true"
     inkscape:zoom="1.3575001"
     inkscape:cx="-47.51381"
     inkscape:cy="58.19521"
     inkscape:window-width="1920"
     inkscape:window-height="1017"
     inkscape:window-x="-8"
     inkscape:window-y="-8"
     inkscape:window-maximized="1"
     inkscape:current-layer="g5643"
     fit-margin-top="0"
     fit-margin-left="0"
     fit-margin-right="0"
     fit-margin-bottom="0"
     inkscape:lockguides="false" />
  <g
     inkscape:groupmode="layer"
     inkscape:label="Image"
     id="g5643"
     transform="translate(-11.772809,-39.880599)">
    <path
       style="fill:#38f347;fill-opacity:1;stroke-width:1.33333"
       d="m 232.09531,247.41776 c -1.7225,-0.0287 -4.9827,-0.85807 -7.2449,-1.84303 -2.2622,-0.98496 -5.4122,-3.4424 -7,-5.46096 -1.6802,-2.13604 -2.887,-5.57325 -2.887,-8.22318 0,-2.50419 0.9102,-6.31312 2.0226,-8.46428 1.1124,-2.15118 3.8536,-4.85808 6.0915,-6.01535 2.2379,-1.15728 6.2778,-2.24284 8.9775,-2.41237 l 4.9084,-0.30826 1.5047,-4.59877 c 0.8275,-2.52932 1.0685,-5.80391 0.5356,-7.27685 -0.533,-1.47295 -3.0101,-3.69928 -5.5047,-4.94739 -2.4945,-1.24811 -7.7095,-2.29811 -11.5887,-2.33333 -4.4962,-0.0408 -8.9205,0.88864 -12.2043,2.56393 -2.8332,1.44539 -6.8808,4.72616 -8.9946,7.2906 -2.1139,2.56445 -7.7138,11.92616 -12.4443,20.80379 -4.7305,8.87764 -9.3042,16.72482 -10.1638,17.43821 -1.028,0.85313 -5.8258,0.49113 -14.018,-1.05766 -9.2017,-1.73964 -19.2467,-2.35864 -38.4552,-2.3697 l -26.000002,-0.0151 -8.4808,2.38228 c -4.6645,1.31027 -8.6818,2.18137 -8.9273,1.93583 -0.2456,-0.24556 -1.0913,-4.62919 -1.8793,-9.7414 -0.7881,-5.11213 -2.5959,-13.19485 -4.0173,-17.96152 -1.4215,-4.76667 -4.4169,-11.54937 -6.6566,-15.07268 -2.8018,-4.40767 -5.8346,-7.20607 -9.7221,-8.97072 -3.1074,-1.41059 -8.2461,-2.57788 -11.4192,-2.59399 l -5.7692,-0.0293 -3.8974,3.89744 c -3.007,3.00696 -3.8975,5.1145 -3.8975,9.22428 0,2.92976 0.3642,6.27592 0.8094,7.4359 0.5486,1.42972 2.5026,2.10905 6.0662,2.10905 2.8913,0 6.9741,0.88801 9.0729,1.97336 2.0989,1.08535 5.0691,3.56627 6.6005,5.51315 1.6054,2.04094 2.7844,5.49368 2.7844,8.15425 0,2.53795 -1.0079,6.32064 -2.2397,8.40597 -1.2319,2.08535 -4.1422,4.81605 -6.4674,6.06827 -3.0302,1.6319 -6.0294,2.07365 -10.5891,1.5597 -4.7784,-0.5386 -7.3996,-1.75509 -10.5327,-4.8883 l -4.1711,-4.17128 -0.015,-7.10257 -0.015,-7.10259 -4.3099,-4.90872 c -2.3705,-2.69979 -5.6593,-7.44204 -7.3086,-10.53831 l -2.9986,-5.6296 v -12 -12 l 3.0458,-5.72198 c 1.6751,-3.1471 5.482,-8.15832 8.4598,-11.13606 2.9777,-2.97773 8.5082,-6.83059 12.2899,-8.56191 3.7817,-1.73132 10.2725,-3.54708 14.4241,-4.03501 4.4284,-0.52047 11.2052,-0.19716 16.3955,0.78218 5.0796,0.95845 13.717,4.15423 20.2826,7.5044 6.2895,3.20928 11.5674,5.83505 11.7286,5.83505 0.1612,0 0.6502,-5.25 1.0866,-11.66667 0.4364,-6.41666 2.014802,-16.37183 3.507502,-22.1226 1.4928,-5.75077 4.659,-14.40673 7.0362,-19.23546 2.3772,-4.82874 7.1169,-11.574231 10.5326,-14.989971 3.4158,-3.41575 9.0911,-7.56452 12.6119,-9.21949 3.5208,-1.65498 9.5462,-3.66866 13.3898,-4.47486 5.118,-1.07351 9.1501,-1.06378 15.0657,0.0363 4.4426,0.82619 11.6951,3.12565 16.1166,5.10991 4.5223,2.02949 10.0929,5.88102 12.7339,8.80425 2.5821,2.85808 5.0307,6.87651 5.4414,8.929841 0.4495,2.2478 2.3416,4.67551 4.755,6.10113 2.2046,1.30228 4.8974,4.49573 5.9841,7.09655 1.1799,2.82394 1.6508,6.46157 1.1688,9.03046 -0.4438,2.36593 -2.3727,5.86744 -4.2864,7.78113 -1.9137,1.91369 -5.668,4.06876 -8.343,4.78905 -3.216,0.86599 -6.514,0.85391 -9.7358,-0.0357 -2.6797,-0.73991 -6.4108,-3.17377 -8.2913,-5.40858 -2.5803,-3.06644 -3.4191,-5.56082 -3.4191,-10.16744 v -6.10415 l 5.3333,-5.07348 c 2.9334,-2.79034 5.3334,-5.38203 5.3334,-5.75924 0,-0.37721 -1.7702,-1.60124 -3.9338,-2.72008 -2.1636,-1.11883 -6.0934,-2.034241 -8.7329,-2.034241 -2.6395,0 -6.4978,0.878451 -8.574,1.952111 -2.0763,1.07367 -5.3027,3.76767 -7.1699,5.98667 -1.9178,2.27926 -4.0638,7.25703 -4.9325,11.44142 -0.8457,4.07378 -1.1617,9.92978 -0.7021,13.01334 0.4595,3.08356 1.4794,8.60647 2.2665,12.27313 0.787,3.66667 3.1912,10.95908 5.3427,16.20536 l 3.9116,9.53868 8.9289,-5.24438 c 4.9108,-2.88442 13.8863,-6.79987 19.9454,-8.701 l 11.0165,-3.45659 11.6501,0.59014 c 8.6919,0.44029 13.1488,1.3653 17.5523,3.64288 3.2462,1.679 8.9973,5.97998 12.7803,9.55773 3.7829,3.57774 8.5026,9.48993 10.4883,13.1382 1.9856,3.64825 3.9583,9.57214 4.3837,13.1642 0.4498,3.7979 0.075,8.70022 -0.8954,11.71456 -0.9179,2.85096 -3.7033,8.0512 -6.1899,11.55608 l -4.521,6.37252 1.3592,2.53982 c 0.7476,1.39691 1.3571,4.22927 1.3543,6.29415 0,2.06488 -1.1319,5.60234 -2.5092,7.86104 -1.3774,2.25868 -4.6158,5.10868 -7.1965,6.33333 -2.5808,1.22464 -6.1016,2.20313 -7.8241,2.17443 z"
       id="path7303" />
  </g>
</svg>
